<?xml version="1.0" encoding="UTF-8" standalone="no"?>
<!DOCTYPE svg PUBLIC "-//W3C//DTD SVG 1.1//EN" "http://www.w3.org/Graphics/SVG/1.1/DTD/svg11.dtd">
<svg width="100%" height="100%" viewBox="0 0 726 251" version="1.1" xmlns="http://www.w3.org/2000/svg" xmlns:xlink="http://www.w3.org/1999/xlink" xml:space="preserve" xmlns:serif="http://www.serif.com/" style="fill-rule:evenodd;clip-rule:evenodd;stroke-miterlimit:22.93;">
    <g transform="matrix(0.811627,0,0,0.810948,-26.385981,-266.826143)">
        <path d="M375.2,329.03L586.61,329.03L586.61,354.66L592.09,354.66L592.09,379.32L586.61,379.32L586.61,405.02L592.09,405.02L592.09,429.67L586.61,429.67L586.61,454.51L375.2,454.51L375.2,429.67L369.72,429.67L369.72,405.02L375.2,405.02L375.2,379.32L369.72,379.32L369.72,354.66L375.2,354.66L375.2,329.03Z" style="fill:white;"/>
    </g>
    <g transform="matrix(0.811627,0,0,0.810948,-26.385981,-266.826143)">
        <path d="M35.34,480.11L84.41,480.11L96.68,493.14L96.68,542.22L84.71,555.67L96.68,568.09L96.68,618.35L84.26,630.76L35.34,630.76L35.34,567.66L32.51,567.66L32.51,543.65L35.34,543.65L35.34,480.11ZM59.34,504.3L72.72,504.3L72.72,543.16L59.34,543.16L59.34,504.3ZM59.34,567.98L72.72,567.98L72.72,607.16L59.34,607.16L59.34,567.98Z" style="fill:white;"/>
    </g>
    <g transform="matrix(0.811627,0,0,0.810948,-26.385981,-266.826143)">
        <path d="M316.78,606.91L341.67,606.91L341.67,630.77L292.92,630.77L292.92,480.14L316.78,480.14L316.78,606.91Z" style="fill:white;stroke:white;stroke-width:0.57px;"/>
    </g>
    <g transform="matrix(0.811627,0,0,0.810948,-26.385981,-266.826143)">
        <path d="M260.62,504.22L260.62,630.77L236.76,630.77L236.76,504.22L212.3,504.22L212.3,630.77L188.44,630.77L188.44,504.22L169.93,504.22L169.93,480.36L280.36,480.36L280.36,504.22L260.62,504.22Z" style="fill:white;"/>
    </g>
    <g transform="matrix(0.811627,0,0,0.810948,-26.385981,-266.826143)">
        <path d="M379.04,504L379.04,543.84L403.13,543.84L403.13,567.69L379.04,567.69L379.04,606.91L402.89,606.91L402.89,630.77L355.18,630.77L355.18,567.69L351.29,567.69L351.29,543.84L355.18,543.84L355.18,480.14L402.89,480.14L402.89,504L379.04,504Z" style="fill:white;"/>
    </g>
    <g transform="matrix(0.811627,0,0,0.810948,-26.385981,-266.826143)">
        <path d="M428.65,480.2L465.4,480.2L478.04,493.07L478.04,529.92L453.87,529.92L453.87,504.35L440.49,504.35L440.49,606.56L453.87,606.56L453.87,567.6L447.2,567.6L447.2,543.74L478.36,543.74L478.36,567.6L478.04,567.6L478.04,618.15L464.72,630.71L429.09,630.71L416.31,618.21L416.31,492.95L428.65,480.2Z" style="fill:white;"/>
    </g>
    <g transform="matrix(0.811627,0,0,0.810948,-26.385981,-266.826143)">
        <path d="M516.03,504.39L529.41,504.39L529.41,543.25L516.03,543.25L516.03,504.39ZM491.33,480.2L540.4,480.2L552.67,493.23L552.67,542.31L540.7,555.76L552.67,568.18L552.67,630.81L528.72,630.86L528.72,568.07L515.34,568.07L515.34,630.86L491.34,630.86L491.34,567.75L488.51,567.75L488.51,543.74L491.34,543.74L491.34,480.2L491.33,480.2Z" style="fill:white;"/>
    </g>
    <g transform="matrix(0.811627,0,0,0.810948,-26.385981,-266.826143)">
        <path d="M562.53,543.74L565.85,543.74L565.85,492.94L578.18,480.19L614.93,480.19L627.57,493.06L627.57,543.73L631.17,543.73L631.17,567.59L627.57,567.59L627.57,618.14L614.24,630.69L578.61,630.69L565.83,618.19L565.83,567.58L562.51,567.58L562.51,543.72L562.53,543.74ZM590.03,504.35L603.41,504.35L603.41,606.56L590.03,606.56L590.03,504.35Z" style="fill:white;"/>
    </g>
    <g transform="matrix(0.811627,0,0,0.810948,-26.385981,-266.826143)">
        <path d="M664.72,480.14L664.72,606.91L678.32,606.91L678.32,480.14L702.18,480.14L702.18,618.14L689.61,630.77L653.44,630.77L640.86,618.41L640.86,480.14L664.72,480.14Z" style="fill:white;"/>
    </g>
    <g transform="matrix(0.811627,0,0,0.810948,-26.385981,-266.826143)">
        <path d="M740.09,480.14L740.09,480.7L753.25,551.47L753.25,480.14L777.11,480.14L777.11,630.77L753.25,630.77L753.25,630.46L740.09,559.69L740.09,630.77L716.23,630.77L716.23,480.14L740.09,480.14Z" style="fill:white;"/>
    </g>
    <g transform="matrix(0.811627,0,0,0.810948,-26.385981,-266.826143)">
        <path d="M140.72,523.5L135.89,567.63L146.24,567.63L140.72,523.5ZM134.71,591.49L130.69,630.77L106.83,630.77L128.38,480.15L153.07,480.15L174.62,630.77L150.76,630.77L146.74,591.49L134.71,591.49Z" style="fill:white;"/>
    </g>
    <g transform="matrix(0.811627,0,0,0.810948,-26.385981,-266.826143)">
        <path d="M814.68,504.35L828.06,504.35L828.06,606.56L814.68,606.56L814.68,504.35ZM790.42,480.14L839.77,480.14L852.3,493.08L852.3,617.92L839.29,630.91L790.42,630.91L790.42,480.14Z" style="fill:white;"/>
    </g>
    <g transform="matrix(0.811627,0,0,0.810948,-26.385981,-266.826143)">
        <path d="M889.85,580.96L889.85,606.62L903.04,606.62L903.04,584.83L865.39,536.1L865.39,493.13L878.79,480.21L914.7,480.21L927.01,493.35L927.01,530.03L903.04,530.03L903.04,504.41L889.85,504.41L889.85,527.13L903.04,544.16L903.04,544.08L927.01,575.17L927.01,617.92L914.01,630.82L877.88,630.82L865.39,618.38L865.39,580.96L889.85,580.96Z" style="fill:white;"/>
    </g>
    <g transform="matrix(0.811627,0,0,0.810948,-26.385981,-266.826143)">
        <path d="M485.22,344.71L516.25,344.71L524.01,352.95L524.01,383.99L516.44,392.5L524.01,400.35L524.01,432.14L516.16,439.99L485.22,439.99L485.22,400.08L483.43,400.08L483.43,384.89L485.22,384.89L485.22,344.71ZM500.4,360.01L508.86,360.01L508.86,384.59L500.4,384.59L500.4,360.01ZM500.4,400.28L508.86,400.28L508.86,425.06L500.4,425.06L500.4,400.28Z"/>
    </g>
    <g transform="matrix(0.811627,0,0,0.810948,-26.385981,-266.826143)">
        <path d="M539.78,344.77L563.02,344.77L571.02,352.91L571.02,376.21L555.73,376.21L555.73,360.04L547.26,360.04L547.26,424.68L555.73,424.68L555.73,400.04L551.51,400.04L551.51,384.95L571.21,384.95L571.21,400.04L571.02,400.04L571.02,432.01L562.59,439.95L540.06,439.95L531.98,432.05L531.98,352.83L539.78,344.77Z"/>
    </g>
    <g transform="matrix(0.811627,0,0,0.810948,-26.385981,-266.826143)">
        <path d="M452.8,344.73L452.8,424.9L461.4,424.9L461.4,344.73L476.49,344.73L476.49,432L468.54,439.99L445.67,439.99L437.71,432.17L437.71,344.73L452.8,344.73Z"/>
    </g>
    <g transform="matrix(0.811627,0,0,0.810948,-26.385981,-266.826143)">
        <path d="M390.8,344.71L421.83,344.71L429.59,352.95L429.59,392.37L420.94,399.93L405.98,399.93L405.98,439.99L390.8,439.99L390.8,400.08L388.66,400.08L388.66,384.89L390.8,384.89L390.8,344.71ZM405.98,360.01L414.44,360.01L414.44,384.59L405.98,384.59L405.98,360.01Z"/>
    </g>
    <g transform="matrix(0.811627,0,0,0.810948,-26.385981,-266.826143)">
        <path d="M595.51,329.94C596.17,329.89 596.86,330 597.41,330.22C597.77,330.36 598.17,330.58 598.47,330.81L598.7,330.99C599.13,331.38 599.44,331.75 599.72,332.28C599.98,332.76 600.16,333.36 600.2,333.98C600.27,334.91 600.03,335.85 599.56,336.6C599.49,336.72 599.42,336.82 599.33,336.93L599.09,337.23C599.09,337.23 598.99,337.32 598.95,337.37C598.63,337.7 598.29,337.98 597.86,338.19C597.33,338.44 596.84,338.63 596.16,338.68C593.65,338.87 591.64,336.95 591.46,334.66C591.39,333.72 591.62,332.77 592.1,332.02C592.18,331.9 592.24,331.8 592.33,331.69C592.5,331.46 592.78,331.15 592.99,330.98C593.04,330.94 593.08,330.9 593.13,330.86C593.76,330.35 594.67,330.01 595.49,329.94L595.51,329.94ZM590.85,334.58C590.91,335.6 591.27,336.56 591.86,337.32L592.14,337.66C592.23,337.77 592.33,337.88 592.44,337.97C592.72,338.2 592.81,338.3 593.15,338.51C594.02,339.06 595.02,339.34 596.11,339.29C598.77,339.16 600.97,336.87 600.82,334.02C600.68,331.36 598.39,329.16 595.56,329.31C592.92,329.45 590.68,331.73 590.85,334.57L590.85,334.58Z" style="fill:rgb(35,31,32);"/>
    </g>
    <g transform="matrix(0.811627,0,0,0.810948,-26.385981,-266.826143)">
        <path d="M594.96,334.17L594.96,332.41C595.27,332.4 596.03,332.38 596.3,332.46C596.66,332.56 596.87,332.83 596.88,333.28C596.88,333.72 596.65,334 596.31,334.11C596.06,334.19 595.25,334.19 594.96,334.17ZM594.04,336.94L594.96,336.94L594.96,334.92L595.98,334.92L597.03,336.94L598.01,336.94C598.01,336.84 597.49,335.92 597.43,335.82C597.33,335.63 597.23,335.45 597.13,335.26C597.07,335.15 596.86,334.78 596.83,334.7C597.02,334.64 597.32,334.42 597.41,334.32C597.77,333.92 597.88,333.37 597.74,332.82C597.71,332.69 597.67,332.57 597.61,332.47C597.3,331.91 596.7,331.7 595.97,331.68L595.01,331.68C594.69,331.68 594.35,331.67 594.04,331.68L594.04,336.94Z" style="fill:rgb(35,31,32);"/>
    </g>
</svg>
