<?xml version="1.0" encoding="UTF-8" standalone="no"?>
<!DOCTYPE svg PUBLIC "-//W3C//DTD SVG 1.1//EN" "http://www.w3.org/Graphics/SVG/1.1/DTD/svg11.dtd">
<svg width="100%" height="100%" viewBox="0 0 302 200" version="1.1" xmlns="http://www.w3.org/2000/svg" xmlns:xlink="http://www.w3.org/1999/xlink" xml:space="preserve" xmlns:serif="http://www.serif.com/" style="fill-rule:evenodd;clip-rule:evenodd;stroke-linejoin:round;stroke-miterlimit:2;">
    <g id="ff4655ff" transform="matrix(0.292076,0,0,0.292379,0,-1.209296)">
        <path d="M245.44,4.65C248.61,2.76 250.63,6.58 252.34,8.59C362.37,146.24 472.53,283.79 582.55,421.44C584.81,423.4 583.1,427.59 580.05,427.14C527.37,427.2 474.68,427.16 422,427.16C417.78,427.21 413.74,425.11 411.15,421.82C356.49,353.53 301.86,285.21 247.2,216.91C244.88,214.15 243.68,210.58 243.83,206.99C243.83,141.01 243.85,75.02 243.81,9.04C243.84,7.48 243.78,5.46 245.44,4.65Z" style="fill:rgb(255,70,85);fill-rule:nonzero;"/>
        <path d="M754.32,4.33C756.57,3.48 759.05,5.56 758.72,7.92C758.8,73.93 758.71,139.94 758.76,205.95C758.91,209.69 758.09,213.56 755.66,216.5C739.05,237.28 722.42,258.05 705.81,278.82C703.04,282.42 698.51,284.41 693.98,284.18C641.65,284.13 589.31,284.21 536.98,284.14C533.89,284.62 532.13,280.45 534.41,278.44C606.98,187.65 679.61,96.89 752.22,6.12C752.77,5.34 753.47,4.74 754.32,4.33Z" style="fill:rgb(255,70,85);fill-rule:nonzero;"/>
        <path d="M392.51,540.68C408.39,538.24 425.06,541.05 439.18,548.77C452.87,556.18 464.12,568.01 470.81,582.08C478.23,597.51 479.96,615.55 475.77,632.15C471.79,648.22 462.16,662.8 449.02,672.87C426.55,690.57 393.62,693.18 368.6,679.35C354.2,671.62 342.52,658.99 335.93,644.03C327.63,625.45 327.52,603.42 335.61,584.74C345.36,561.58 367.62,544.27 392.51,540.68M396.52,565.68C380.58,568.09 366.56,579.41 360.31,594.2C353.85,608.92 355.12,626.77 363.73,640.36C370.79,651.81 382.83,660.15 396.15,662.29C409.69,664.67 424.11,660.48 434.43,651.44C446.2,641.37 452.57,625.49 451.24,610.07C450.24,596.31 443.18,583.11 432.17,574.76C422.19,567.04 408.99,563.63 396.52,565.68Z" style="fill:rgb(255,70,85);fill-rule:nonzero;"/>
        <path d="M0,544.09C6.18,542.41 12.71,543.77 19.03,543.29C21.28,543.6 24.7,542.44 25.97,544.98C26.41,548.29 26.13,551.64 26.17,554.98C26.17,584.09 26.16,613.21 26.17,642.32C51.69,610.43 77.18,578.52 102.67,546.61C104,544.95 105.81,543.48 108.04,543.44C115.36,543.12 122.69,543.48 130.02,543.3C132.76,543.35 135.8,542.83 138.14,544.65C129.61,555.89 120.57,566.74 111.83,577.82C85.63,610.62 59.42,643.41 33.21,676.2C31.26,678.58 29.55,681.2 27.22,683.26C24.93,685.15 21.74,684.56 19,684.71C12.67,684.49 6.3,685.05 0,684.27L0,544.09Z" style="fill:rgb(255,70,85);fill-rule:nonzero;"/>
        <path d="M177.2,549.17C179.92,545.48 184.38,543.24 188.97,543.34C194.63,543.35 200.3,543.24 205.96,543.39C207.91,543.18 209,545.2 208.75,546.92L208.75,681.03C209.01,682.75 207.96,684.85 205.96,684.63C198.95,684.71 191.94,684.71 184.93,684.62C182.36,684.69 180.33,682.88 178.89,680.95C166.77,665.73 154.59,650.56 142.47,635.34C130.13,650.71 117.86,666.13 105.55,681.53C104.23,683.22 102.32,684.64 100.08,684.61C92.05,684.79 84.01,684.57 75.97,684.7C74,684.57 71.53,685.2 70.31,683.15C105.73,638.33 141.63,593.87 177.2,549.17M157.23,614.01C165.55,624.36 173.75,634.8 182.13,645.09C182.19,624.34 182.17,603.6 182.15,582.85C173.82,593.22 165.52,603.61 157.23,614.01Z" style="fill:rgb(255,70,85);fill-rule:nonzero;"/>
        <path d="M240.5,546.89C240.31,545.31 241.17,543.37 243,543.41C250.05,543.24 257.13,543.31 264.19,543.38C266.21,543.16 267.47,545.16 267.15,547.01C267.19,584.47 267.17,621.93 267.16,659.4C286.76,659.47 306.36,659.35 325.95,659.45C327.63,659.09 328.68,661.22 327.35,662.35C322.25,668.92 316.98,675.37 311.79,681.89C310.22,684.01 307.56,684.87 305,684.68C284.34,684.61 263.67,684.76 243.01,684.61C241.11,684.69 240.32,682.63 240.5,681.04C240.5,636.33 240.49,591.61 240.5,546.89Z" style="fill:rgb(255,70,85);fill-rule:nonzero;"/>
        <path d="M501.67,546.94C501.21,544.88 502.87,543.01 504.96,543.35C540.68,543.31 576.39,543.33 612.1,543.34C613.75,543.11 615.7,544.14 615.54,546.02C615.65,555.7 615.56,565.39 615.58,575.07C615.79,577.38 614.57,579.41 613.15,581.11C602.84,593.86 592.7,606.74 582.36,619.47C581.85,620.37 580.15,621.56 581.44,622.6C597.06,642.24 612.81,661.79 628.41,681.44C629.54,682.38 629.56,684.62 627.71,684.57C618.45,684.77 609.18,684.67 599.92,684.62C596.29,684.67 594.24,681.3 592.23,678.82C577.89,660.83 563.54,642.85 549.15,624.91C548.08,623.59 546.44,621.68 547.93,620.05C561.48,602.85 575.28,585.83 588.9,568.67C568.73,568.58 548.55,568.84 528.39,568.54C528.03,606.34 528.41,644.16 528.2,681.96C528.43,683.72 526.61,684.89 525.03,684.65C518.03,684.65 511.03,684.76 504.03,684.6C502.17,684.62 501.42,682.53 501.66,680.98C501.67,636.3 501.66,591.62 501.67,546.94Z" style="fill:rgb(255,70,85);fill-rule:nonzero;"/>
        <path d="M651.16,547.01C650.84,545.21 652.01,543.15 654.03,543.38C660.7,543.26 667.39,543.33 674.07,543.35C676.57,543.2 678.99,544.37 680.46,546.4C713.79,588.1 747.11,629.81 780.44,671.51C783.31,675.36 786.75,678.82 789.24,682.95C789,683.34 788.52,684.12 788.28,684.51C780.2,684.92 772.09,684.51 764,684.69C760.81,684.74 756.95,685.01 754.84,682.09C742.32,666.56 729.92,650.93 717.46,635.35C705.12,650.71 692.84,666.13 680.54,681.52C679.22,683.23 677.29,684.63 675.05,684.62C668.07,684.72 661.09,684.69 654.12,684.64C652.04,684.93 650.83,682.83 651.16,681C651.16,636.34 651.17,591.67 651.16,547.01M677.77,582.92C677.74,603.66 677.74,624.39 677.77,645.13C686.09,634.77 694.37,624.38 702.66,614C694.35,603.65 686.13,593.22 677.77,582.92Z" style="fill:rgb(255,70,85);fill-rule:nonzero;"/>
        <path d="M768.68,547.05C768.47,545.5 769.16,543.48 770.99,543.44C777.64,543.17 784.3,543.4 790.95,543.33C793.53,543.16 796.23,544.01 797.8,546.17C823.45,578.19 849,610.29 874.67,642.29C874.67,610.52 874.66,578.75 874.67,546.97C874.24,544.97 875.8,543.03 877.89,543.35C884.93,543.36 891.97,543.19 899,543.44C900.8,543.51 901.45,545.51 901.25,547.05L901.25,680.97C901.46,682.49 900.79,684.55 898.97,684.58C891.98,684.78 884.97,684.64 877.98,684.65C875.67,684.74 873.48,683.63 872.12,681.8C846.5,649.81 820.97,617.74 795.33,585.77C795.3,604.52 795.38,623.28 795.3,642.03C795.79,643.7 793.41,645.13 792.4,643.61C785.04,634.68 777.93,625.54 770.67,616.53C769.05,614.76 768.53,612.38 768.65,610.05C768.69,589.05 768.64,568.05 768.68,547.05Z" style="fill:rgb(255,70,85);fill-rule:nonzero;"/>
        <path d="M919.64,546.01C919.43,544.19 921.37,543.14 922.96,543.35C952.32,543.3 981.68,543.35 1011.04,543.33C1013.58,543.17 1016.24,544 1017.79,546.14C1022.99,552.62 1028.24,559.08 1033.35,565.64C1034.7,566.74 1033.69,568.92 1031.99,568.62C1016.64,568.74 1001.28,568.62 985.92,568.67C985.85,606.11 986.01,643.55 986,680.99C986.36,682.78 985.13,684.84 983.13,684.63C976.12,684.69 969.1,684.72 962.1,684.62C960.61,684.75 959.31,683.43 959.46,681.96C959.21,644.2 959.45,606.43 959.25,568.67C947.14,568.64 935.02,568.71 922.92,568.65C921.31,568.84 919.39,567.73 919.64,565.91C919.54,559.28 919.53,552.64 919.64,546.01Z" style="fill:rgb(255,70,85);fill-rule:nonzero;"/>
    </g>
</svg>
