<?xml version="1.0" encoding="UTF-8" standalone="no"?>
<!DOCTYPE svg PUBLIC "-//W3C//DTD SVG 1.1//EN" "http://www.w3.org/Graphics/SVG/1.1/DTD/svg11.dtd">
<svg width="100%" height="100%" viewBox="0 0 1392 200" version="1.1" xmlns="http://www.w3.org/2000/svg" xmlns:xlink="http://www.w3.org/1999/xlink" xml:space="preserve" xmlns:serif="http://www.serif.com/" style="fill-rule:evenodd;clip-rule:evenodd;stroke-linejoin:round;stroke-miterlimit:2;">
    <g id="Valorant_logo" transform="matrix(2.702913,0,0,2.702703,0,0)">
        <path d="M459.105,14.352L477.531,14.352L477.59,70.852C477.59,71.578 478.18,72.176 478.914,72.176L489.465,72.168C490.199,72.168 490.789,71.578 490.789,70.844L490.727,14.352L513.836,14.352C514.516,14.352 514.902,13.559 514.469,13.027L506.559,3.117C505.898,2.285 504.895,1.805 503.836,1.801L459.105,1.801C458.371,1.801 457.781,2.391 457.781,3.125L457.781,13.035C457.781,13.754 458.371,14.352 459.105,14.352M14.367,70.859L68.422,3.125C68.848,2.594 68.465,1.801 67.785,1.801L54.27,1.801C53.211,1.801 52.203,2.289 51.543,3.117L13.195,51.164L13.195,3.117C13.195,2.383 12.605,1.793 11.875,1.793L1.32,1.793C0.59,1.793 -0,2.383 -0,3.117L-0,70.852C-0,71.586 0.59,72.176 1.32,72.176L11.645,72.176C12.703,72.176 13.703,71.691 14.367,70.859M52.477,70.859L71.07,47.562L89.664,70.859C90.324,71.691 91.332,72.176 92.395,72.176L102.715,72.176C103.449,72.176 104.039,71.586 104.039,70.852L104.039,3.117C104.039,2.391 103.449,1.793 102.715,1.793L94.059,1.793C91.937,1.793 89.93,2.758 88.602,4.418L35.594,70.844C35.168,71.375 35.551,72.168 36.23,72.168L49.746,72.168C50.812,72.176 51.812,71.691 52.477,70.859M90.836,21.371L90.836,52.578L78.383,36.977L90.836,21.371ZM392.645,70.844L338.594,3.109C337.934,2.281 336.93,1.797 335.871,1.793L325.539,1.793C324.809,1.793 324.219,2.383 324.219,3.117L324.219,70.852C324.219,71.586 324.809,72.176 325.539,72.176L335.863,72.176C336.922,72.176 337.93,71.691 338.586,70.859L357.18,47.563L375.77,70.859C376.434,71.691 377.434,72.176 378.496,72.176L392.012,72.176C392.691,72.176 393.07,71.383 392.645,70.844M349.855,36.977L337.398,52.586L337.398,21.371L349.855,36.977ZM201.109,0.039C180.734,0.039 164.219,16.578 164.219,36.984C164.219,57.391 180.734,73.934 201.109,73.934C221.488,73.934 238.004,57.391 238.004,36.984C238.012,16.578 221.488,0.039 201.109,0.039M201.109,61.375C188.02,61.375 177.414,50.453 177.414,36.984C177.414,23.516 188.02,12.586 201.109,12.586C214.203,12.586 224.809,23.508 224.809,36.984C224.816,50.453 214.203,61.375 201.109,61.375M435.422,3.117L435.422,51.164L397.074,3.109C396.41,2.281 395.41,1.797 394.348,1.793L384.012,1.793C383.285,1.793 382.691,2.383 382.691,3.117L382.691,35.758C382.691,36.551 382.957,37.32 383.457,37.941L394.437,51.703C394.922,52.309 395.895,51.965 395.895,51.195L395.895,22.789L434.25,70.859C434.91,71.691 435.914,72.176 436.973,72.176L447.297,72.176C448.027,72.176 448.617,71.586 448.617,70.852L448.617,3.117C448.617,2.391 448.027,1.793 447.297,1.793L436.742,1.793C436.012,1.793 435.422,2.391 435.422,3.117M306.477,17.797L306.477,3.117C306.477,2.383 305.887,1.793 305.156,1.793L251.141,1.793C250.41,1.793 249.82,2.383 249.82,3.117L249.82,70.852C249.82,71.586 250.41,72.176 251.141,72.176L261.695,72.176C262.426,72.176 263.016,71.586 263.016,70.852L263.016,14.359L293.281,14.359L272.852,39.969C272.473,40.445 272.473,41.133 272.852,41.621L296.191,70.867C296.855,71.699 297.855,72.184 298.918,72.184L312.434,72.184C313.113,72.184 313.492,71.391 313.066,70.859L289.078,40.805L305.707,19.996C306.199,19.359 306.477,18.59 306.477,17.797M121.203,72.176L152.523,72.176C153.582,72.176 154.59,71.691 155.246,70.859L163.156,60.941C163.582,60.41 163.203,59.617 162.523,59.617L133.078,59.617L133.078,3.117C133.078,2.383 132.488,1.793 131.758,1.793L121.203,1.793C120.473,1.793 119.883,2.383 119.883,3.117L119.883,70.852C119.883,71.578 120.48,72.176 121.203,72.176" style="fill:white;fill-rule:nonzero;"/>
    </g>
</svg>
