<?xml version="1.0" encoding="UTF-8" standalone="no"?>
<!DOCTYPE svg PUBLIC "-//W3C//DTD SVG 1.1//EN" "http://www.w3.org/Graphics/SVG/1.1/DTD/svg11.dtd">
<svg width="100%" height="100%" viewBox="0 0 122 100" version="1.1" xmlns="http://www.w3.org/2000/svg" xmlns:xlink="http://www.w3.org/1999/xlink" xml:space="preserve" xmlns:serif="http://www.serif.com/" style="fill-rule:evenodd;clip-rule:evenodd;stroke-linejoin:round;stroke-miterlimit:2;">
    <g transform="matrix(0.236908,0,0,0.236386,-57.760621,-0.977704)">
        <path d="M245.44,4.65C248.61,2.76 250.63,6.58 252.34,8.59C362.37,146.24 472.53,283.79 582.55,421.44C584.81,423.4 583.1,427.59 580.05,427.14C527.37,427.2 474.68,427.16 422,427.16C417.78,427.21 413.74,425.11 411.15,421.82C356.49,353.53 301.86,285.21 247.2,216.91C244.88,214.15 243.68,210.58 243.83,206.99C243.83,141.01 243.85,75.02 243.81,9.04C243.84,7.48 243.78,5.46 245.44,4.65Z" style="fill-rule:nonzero;"/>
    </g>
    <g transform="matrix(0.236908,0,0,0.236386,-57.760621,-0.977704)">
        <path d="M754.32,4.33C756.57,3.48 759.05,5.56 758.72,7.92C758.8,73.93 758.71,139.94 758.76,205.95C758.91,209.69 758.09,213.56 755.66,216.5C739.05,237.28 722.42,258.05 705.81,278.82C703.04,282.42 698.51,284.41 693.98,284.18C641.65,284.13 589.31,284.21 536.98,284.14C533.89,284.62 532.13,280.45 534.41,278.44C606.98,187.65 679.61,96.89 752.22,6.12C752.77,5.34 753.47,4.74 754.32,4.33Z" style="fill-rule:nonzero;"/>
    </g>
</svg>
